<mxfile host="Electron" modified="2023-11-25T13:59:24.716Z" agent="Mozilla/5.0 (Windows NT 10.0; Win64; x64) AppleWebKit/537.36 (KHTML, like Gecko) draw.io/22.0.2 Chrome/114.0.5735.289 Electron/25.8.4 Safari/537.36" etag="-EQMzQvI_mt4U45FUao7" version="22.0.2" type="device">
  <diagram name="1 oldal" id="u1_LuBZSd5SQ4q7yWld0">
    <mxGraphModel dx="1324" dy="921" grid="1" gridSize="10" guides="1" tooltips="1" connect="1" arrows="1" fold="1" page="1" pageScale="1" pageWidth="827" pageHeight="1169" math="0" shadow="0">
      <root>
        <mxCell id="0" />
        <mxCell id="1" parent="0" />
        <mxCell id="eSfSr3_J1NjY3AIfvNvS-1" value="" style="edgeStyle=entityRelationEdgeStyle;fontSize=12;html=1;endArrow=ERone;endFill=1;rounded=0;exitX=1;exitY=0.5;exitDx=0;exitDy=0;entryX=0;entryY=0.5;entryDx=0;entryDy=0;" parent="1" source="eSfSr3_J1NjY3AIfvNvS-2" target="eSfSr3_J1NjY3AIfvNvS-18" edge="1">
          <mxGeometry width="100" height="100" relative="1" as="geometry">
            <mxPoint x="287" y="500" as="sourcePoint" />
            <mxPoint x="357" y="505" as="targetPoint" />
          </mxGeometry>
        </mxCell>
        <mxCell id="eSfSr3_J1NjY3AIfvNvS-2" value="Beosztás" style="rhombus;whiteSpace=wrap;html=1;" parent="1" vertex="1">
          <mxGeometry x="-140" y="480" width="80" height="50" as="geometry" />
        </mxCell>
        <mxCell id="eSfSr3_J1NjY3AIfvNvS-3" value="Mettől" style="ellipse;whiteSpace=wrap;html=1;" parent="1" vertex="1">
          <mxGeometry x="-190" y="585" width="80" height="50" as="geometry" />
        </mxCell>
        <mxCell id="eSfSr3_J1NjY3AIfvNvS-4" value="Meddig" style="ellipse;whiteSpace=wrap;html=1;" parent="1" vertex="1">
          <mxGeometry x="-90" y="585" width="80" height="50" as="geometry" />
        </mxCell>
        <mxCell id="eSfSr3_J1NjY3AIfvNvS-5" value="" style="endArrow=none;html=1;rounded=0;entryX=0.5;entryY=0;entryDx=0;entryDy=0;exitX=0.5;exitY=1;exitDx=0;exitDy=0;" parent="1" source="eSfSr3_J1NjY3AIfvNvS-2" target="eSfSr3_J1NjY3AIfvNvS-3" edge="1">
          <mxGeometry width="50" height="50" relative="1" as="geometry">
            <mxPoint x="87" y="390" as="sourcePoint" />
            <mxPoint x="137" y="340" as="targetPoint" />
          </mxGeometry>
        </mxCell>
        <mxCell id="eSfSr3_J1NjY3AIfvNvS-6" value="" style="endArrow=none;html=1;rounded=0;entryX=0.5;entryY=0;entryDx=0;entryDy=0;exitX=0.5;exitY=1;exitDx=0;exitDy=0;" parent="1" source="eSfSr3_J1NjY3AIfvNvS-2" target="eSfSr3_J1NjY3AIfvNvS-4" edge="1">
          <mxGeometry width="50" height="50" relative="1" as="geometry">
            <mxPoint x="87" y="390" as="sourcePoint" />
            <mxPoint x="137" y="340" as="targetPoint" />
          </mxGeometry>
        </mxCell>
        <mxCell id="eSfSr3_J1NjY3AIfvNvS-8" value="" style="fontSize=12;html=1;endArrow=ERmany;rounded=0;shadow=0;endFill=0;exitX=0;exitY=0.5;exitDx=0;exitDy=0;entryX=1;entryY=0.5;entryDx=0;entryDy=0;" parent="1" source="eSfSr3_J1NjY3AIfvNvS-2" target="eSfSr3_J1NjY3AIfvNvS-9" edge="1">
          <mxGeometry width="100" height="100" relative="1" as="geometry">
            <mxPoint x="-23" y="510" as="sourcePoint" />
            <mxPoint x="-13" y="505" as="targetPoint" />
          </mxGeometry>
        </mxCell>
        <mxCell id="eSfSr3_J1NjY3AIfvNvS-9" value="Alkalmazottak" style="rounded=0;whiteSpace=wrap;html=1;" parent="1" vertex="1">
          <mxGeometry x="-450" y="480" width="100" height="50" as="geometry" />
        </mxCell>
        <mxCell id="eSfSr3_J1NjY3AIfvNvS-10" value="Név" style="ellipse;whiteSpace=wrap;html=1;" parent="1" vertex="1">
          <mxGeometry x="-290" y="585" width="80" height="50" as="geometry" />
        </mxCell>
        <mxCell id="eSfSr3_J1NjY3AIfvNvS-11" value="Fizetés" style="ellipse;whiteSpace=wrap;html=1;dashed=1;" parent="1" vertex="1">
          <mxGeometry x="-590" y="585" width="80" height="50" as="geometry" />
        </mxCell>
        <mxCell id="eSfSr3_J1NjY3AIfvNvS-12" value="Előkészítési idő" style="ellipse;whiteSpace=wrap;html=1;" parent="1" vertex="1">
          <mxGeometry x="110" y="585" width="80" height="50" as="geometry" />
        </mxCell>
        <mxCell id="eSfSr3_J1NjY3AIfvNvS-13" value="&lt;u style=&quot;background-color: rgb(0, 0, 0);&quot;&gt;Aid&lt;/u&gt;" style="ellipse;whiteSpace=wrap;html=1;" parent="1" vertex="1">
          <mxGeometry x="-390" y="585" width="80" height="50" as="geometry" />
        </mxCell>
        <mxCell id="eSfSr3_J1NjY3AIfvNvS-14" value="" style="endArrow=none;html=1;rounded=0;entryX=0.5;entryY=0;entryDx=0;entryDy=0;exitX=0.5;exitY=1;exitDx=0;exitDy=0;" parent="1" source="eSfSr3_J1NjY3AIfvNvS-9" target="eSfSr3_J1NjY3AIfvNvS-10" edge="1">
          <mxGeometry width="50" height="50" relative="1" as="geometry">
            <mxPoint x="-273" y="460" as="sourcePoint" />
            <mxPoint x="-223" y="410" as="targetPoint" />
          </mxGeometry>
        </mxCell>
        <mxCell id="eSfSr3_J1NjY3AIfvNvS-15" value="" style="endArrow=none;html=1;rounded=0;entryX=0.5;entryY=0;entryDx=0;entryDy=0;exitX=0.5;exitY=1;exitDx=0;exitDy=0;" parent="1" source="eSfSr3_J1NjY3AIfvNvS-9" target="eSfSr3_J1NjY3AIfvNvS-11" edge="1">
          <mxGeometry width="50" height="50" relative="1" as="geometry">
            <mxPoint x="-273" y="460" as="sourcePoint" />
            <mxPoint x="-223" y="410" as="targetPoint" />
          </mxGeometry>
        </mxCell>
        <mxCell id="eSfSr3_J1NjY3AIfvNvS-16" value="" style="endArrow=none;html=1;rounded=0;entryX=0.5;entryY=0;entryDx=0;entryDy=0;exitX=0.5;exitY=1;exitDx=0;exitDy=0;" parent="1" source="eSfSr3_J1NjY3AIfvNvS-9" target="eSfSr3_J1NjY3AIfvNvS-13" edge="1">
          <mxGeometry width="50" height="50" relative="1" as="geometry">
            <mxPoint x="-273" y="460" as="sourcePoint" />
            <mxPoint x="-223" y="410" as="targetPoint" />
          </mxGeometry>
        </mxCell>
        <mxCell id="eSfSr3_J1NjY3AIfvNvS-18" value="Ugrálóvár" style="rounded=0;whiteSpace=wrap;html=1;" parent="1" vertex="1">
          <mxGeometry x="150" y="480" width="100" height="50" as="geometry" />
        </mxCell>
        <mxCell id="eSfSr3_J1NjY3AIfvNvS-19" value="&lt;u&gt;Uid&lt;br&gt;&lt;/u&gt;" style="ellipse;whiteSpace=wrap;html=1;" parent="1" vertex="1">
          <mxGeometry x="210" y="585" width="80" height="50" as="geometry" />
        </mxCell>
        <mxCell id="eSfSr3_J1NjY3AIfvNvS-20" value="Típus" style="ellipse;whiteSpace=wrap;html=1;" parent="1" vertex="1">
          <mxGeometry x="310" y="585" width="80" height="50" as="geometry" />
        </mxCell>
        <mxCell id="eSfSr3_J1NjY3AIfvNvS-21" value="" style="endArrow=none;html=1;rounded=0;entryX=0.5;entryY=0;entryDx=0;entryDy=0;exitX=0.5;exitY=1;exitDx=0;exitDy=0;" parent="1" source="eSfSr3_J1NjY3AIfvNvS-18" target="eSfSr3_J1NjY3AIfvNvS-19" edge="1">
          <mxGeometry width="50" height="50" relative="1" as="geometry">
            <mxPoint x="377" y="460" as="sourcePoint" />
            <mxPoint x="427" y="410" as="targetPoint" />
          </mxGeometry>
        </mxCell>
        <mxCell id="eSfSr3_J1NjY3AIfvNvS-22" value="" style="endArrow=none;html=1;rounded=0;entryX=0.5;entryY=0;entryDx=0;entryDy=0;exitX=0.5;exitY=1;exitDx=0;exitDy=0;" parent="1" source="eSfSr3_J1NjY3AIfvNvS-18" target="eSfSr3_J1NjY3AIfvNvS-12" edge="1">
          <mxGeometry width="50" height="50" relative="1" as="geometry">
            <mxPoint x="377" y="460" as="sourcePoint" />
            <mxPoint x="427" y="410" as="targetPoint" />
          </mxGeometry>
        </mxCell>
        <mxCell id="eSfSr3_J1NjY3AIfvNvS-23" value="" style="endArrow=none;html=1;rounded=0;entryX=0.5;entryY=1;entryDx=0;entryDy=0;exitX=0.5;exitY=0;exitDx=0;exitDy=0;" parent="1" source="eSfSr3_J1NjY3AIfvNvS-20" target="eSfSr3_J1NjY3AIfvNvS-18" edge="1">
          <mxGeometry width="50" height="50" relative="1" as="geometry">
            <mxPoint x="377" y="460" as="sourcePoint" />
            <mxPoint x="427" y="410" as="targetPoint" />
          </mxGeometry>
        </mxCell>
        <mxCell id="eSfSr3_J1NjY3AIfvNvS-24" value="Szolgáltatás" style="rhombus;whiteSpace=wrap;html=1;" parent="1" vertex="1">
          <mxGeometry x="160" y="350" width="80" height="50" as="geometry" />
        </mxCell>
        <mxCell id="eSfSr3_J1NjY3AIfvNvS-25" value="" style="fontSize=12;html=1;endArrow=ERmany;rounded=0;shadow=0;endFill=0;exitX=0.5;exitY=1;exitDx=0;exitDy=0;entryX=0.5;entryY=0;entryDx=0;entryDy=0;" parent="1" source="eSfSr3_J1NjY3AIfvNvS-24" target="eSfSr3_J1NjY3AIfvNvS-18" edge="1">
          <mxGeometry width="100" height="100" relative="1" as="geometry">
            <mxPoint x="227" y="515" as="sourcePoint" />
            <mxPoint x="167" y="515" as="targetPoint" />
          </mxGeometry>
        </mxCell>
        <mxCell id="eSfSr3_J1NjY3AIfvNvS-26" value="" style="fontSize=12;html=1;endArrow=ERone;endFill=1;rounded=0;exitX=0.5;exitY=0;exitDx=0;exitDy=0;entryX=0.5;entryY=1;entryDx=0;entryDy=0;" parent="1" source="eSfSr3_J1NjY3AIfvNvS-24" target="eSfSr3_J1NjY3AIfvNvS-27" edge="1">
          <mxGeometry width="100" height="100" relative="1" as="geometry">
            <mxPoint x="307" y="330" as="sourcePoint" />
            <mxPoint x="407" y="240" as="targetPoint" />
          </mxGeometry>
        </mxCell>
        <mxCell id="eSfSr3_J1NjY3AIfvNvS-27" value="Magánvállalkozás" style="rounded=0;whiteSpace=wrap;html=1;" parent="1" vertex="1">
          <mxGeometry x="150" y="180" width="100" height="50" as="geometry" />
        </mxCell>
        <mxCell id="eSfSr3_J1NjY3AIfvNvS-28" value="Díj" style="ellipse;whiteSpace=wrap;html=1;" parent="1" vertex="1">
          <mxGeometry x="110" y="265" width="80" height="50" as="geometry" />
        </mxCell>
        <mxCell id="eSfSr3_J1NjY3AIfvNvS-29" value="Időpontok" style="ellipse;whiteSpace=wrap;html=1;" parent="1" vertex="1">
          <mxGeometry x="10" y="265" width="80" height="50" as="geometry" />
        </mxCell>
        <mxCell id="eSfSr3_J1NjY3AIfvNvS-30" value="Név" style="ellipse;whiteSpace=wrap;html=1;" parent="1" vertex="1">
          <mxGeometry x="310" y="265" width="80" height="50" as="geometry" />
        </mxCell>
        <mxCell id="eSfSr3_J1NjY3AIfvNvS-31" value="&lt;u&gt;Mid&lt;/u&gt;" style="ellipse;whiteSpace=wrap;html=1;" parent="1" vertex="1">
          <mxGeometry x="210" y="265" width="80" height="50" as="geometry" />
        </mxCell>
        <mxCell id="eSfSr3_J1NjY3AIfvNvS-32" value="" style="endArrow=none;html=1;rounded=0;entryX=0.5;entryY=1;entryDx=0;entryDy=0;exitX=0.5;exitY=0;exitDx=0;exitDy=0;" parent="1" source="eSfSr3_J1NjY3AIfvNvS-28" target="eSfSr3_J1NjY3AIfvNvS-27" edge="1">
          <mxGeometry width="50" height="50" relative="1" as="geometry">
            <mxPoint x="287" y="460" as="sourcePoint" />
            <mxPoint x="337" y="410" as="targetPoint" />
          </mxGeometry>
        </mxCell>
        <mxCell id="eSfSr3_J1NjY3AIfvNvS-33" value="" style="endArrow=none;html=1;rounded=0;entryX=0.5;entryY=1;entryDx=0;entryDy=0;exitX=0.5;exitY=0;exitDx=0;exitDy=0;" parent="1" source="eSfSr3_J1NjY3AIfvNvS-31" target="eSfSr3_J1NjY3AIfvNvS-27" edge="1">
          <mxGeometry width="50" height="50" relative="1" as="geometry">
            <mxPoint x="287" y="460" as="sourcePoint" />
            <mxPoint x="337" y="410" as="targetPoint" />
          </mxGeometry>
        </mxCell>
        <mxCell id="eSfSr3_J1NjY3AIfvNvS-34" value="" style="endArrow=none;html=1;rounded=0;entryX=0.5;entryY=0;entryDx=0;entryDy=0;exitX=0.5;exitY=1;exitDx=0;exitDy=0;" parent="1" source="eSfSr3_J1NjY3AIfvNvS-27" target="eSfSr3_J1NjY3AIfvNvS-29" edge="1">
          <mxGeometry width="50" height="50" relative="1" as="geometry">
            <mxPoint x="287" y="460" as="sourcePoint" />
            <mxPoint x="337" y="410" as="targetPoint" />
          </mxGeometry>
        </mxCell>
        <mxCell id="eSfSr3_J1NjY3AIfvNvS-35" value="" style="endArrow=none;html=1;rounded=0;entryX=0.5;entryY=0;entryDx=0;entryDy=0;exitX=0.5;exitY=1;exitDx=0;exitDy=0;" parent="1" source="eSfSr3_J1NjY3AIfvNvS-27" target="eSfSr3_J1NjY3AIfvNvS-30" edge="1">
          <mxGeometry width="50" height="50" relative="1" as="geometry">
            <mxPoint x="287" y="460" as="sourcePoint" />
            <mxPoint x="337" y="410" as="targetPoint" />
          </mxGeometry>
        </mxCell>
        <mxCell id="eSfSr3_J1NjY3AIfvNvS-36" value="Látogatás" style="rhombus;whiteSpace=wrap;html=1;" parent="1" vertex="1">
          <mxGeometry x="460" y="480" width="80" height="50" as="geometry" />
        </mxCell>
        <mxCell id="eSfSr3_J1NjY3AIfvNvS-37" value="Érkezés" style="ellipse;whiteSpace=wrap;html=1;" parent="1" vertex="1">
          <mxGeometry x="407" y="585" width="80" height="50" as="geometry" />
        </mxCell>
        <mxCell id="eSfSr3_J1NjY3AIfvNvS-38" value="Távozás" style="ellipse;whiteSpace=wrap;html=1;" parent="1" vertex="1">
          <mxGeometry x="510" y="585" width="80" height="50" as="geometry" />
        </mxCell>
        <mxCell id="eSfSr3_J1NjY3AIfvNvS-41" value="" style="fontSize=12;html=1;endArrow=ERmany;rounded=0;shadow=0;endFill=0;entryX=1;entryY=0.5;entryDx=0;entryDy=0;exitX=0;exitY=0.5;exitDx=0;exitDy=0;" parent="1" source="eSfSr3_J1NjY3AIfvNvS-36" target="eSfSr3_J1NjY3AIfvNvS-18" edge="1">
          <mxGeometry width="100" height="100" relative="1" as="geometry">
            <mxPoint x="708" y="440" as="sourcePoint" />
            <mxPoint x="417" y="490" as="targetPoint" />
          </mxGeometry>
        </mxCell>
        <mxCell id="eSfSr3_J1NjY3AIfvNvS-42" value="" style="endArrow=none;html=1;rounded=0;entryX=0.5;entryY=1;entryDx=0;entryDy=0;exitX=0.5;exitY=0;exitDx=0;exitDy=0;" parent="1" source="eSfSr3_J1NjY3AIfvNvS-37" target="eSfSr3_J1NjY3AIfvNvS-36" edge="1">
          <mxGeometry width="50" height="50" relative="1" as="geometry">
            <mxPoint x="518" y="460" as="sourcePoint" />
            <mxPoint x="568" y="410" as="targetPoint" />
          </mxGeometry>
        </mxCell>
        <mxCell id="eSfSr3_J1NjY3AIfvNvS-43" value="" style="endArrow=none;html=1;rounded=0;entryX=0.5;entryY=0;entryDx=0;entryDy=0;exitX=0.5;exitY=1;exitDx=0;exitDy=0;" parent="1" source="eSfSr3_J1NjY3AIfvNvS-36" target="eSfSr3_J1NjY3AIfvNvS-38" edge="1">
          <mxGeometry width="50" height="50" relative="1" as="geometry">
            <mxPoint x="518" y="460" as="sourcePoint" />
            <mxPoint x="568" y="410" as="targetPoint" />
          </mxGeometry>
        </mxCell>
        <mxCell id="eSfSr3_J1NjY3AIfvNvS-44" value="Vendég" style="rounded=0;whiteSpace=wrap;html=1;" parent="1" vertex="1">
          <mxGeometry x="750" y="480" width="100" height="50" as="geometry" />
        </mxCell>
        <mxCell id="eSfSr3_J1NjY3AIfvNvS-45" value="" style="fontSize=12;html=1;endArrow=ERmany;rounded=0;shadow=0;endFill=0;entryX=0;entryY=0.5;entryDx=0;entryDy=0;exitX=1;exitY=0.5;exitDx=0;exitDy=0;" parent="1" source="eSfSr3_J1NjY3AIfvNvS-36" target="eSfSr3_J1NjY3AIfvNvS-44" edge="1">
          <mxGeometry width="100" height="100" relative="1" as="geometry">
            <mxPoint x="518" y="515" as="sourcePoint" />
            <mxPoint x="467" y="515" as="targetPoint" />
          </mxGeometry>
        </mxCell>
        <mxCell id="eSfSr3_J1NjY3AIfvNvS-46" value="Név" style="ellipse;whiteSpace=wrap;html=1;" parent="1" vertex="1">
          <mxGeometry x="708" y="585" width="80" height="50" as="geometry" />
        </mxCell>
        <mxCell id="eSfSr3_J1NjY3AIfvNvS-47" value="&lt;u&gt;Vigazolvány&lt;/u&gt;" style="ellipse;whiteSpace=wrap;html=1;" parent="1" vertex="1">
          <mxGeometry x="608" y="585" width="80" height="50" as="geometry" />
        </mxCell>
        <mxCell id="eSfSr3_J1NjY3AIfvNvS-48" value="" style="endArrow=none;html=1;rounded=0;entryX=0.5;entryY=0;entryDx=0;entryDy=0;exitX=0.5;exitY=1;exitDx=0;exitDy=0;" parent="1" source="eSfSr3_J1NjY3AIfvNvS-44" target="eSfSr3_J1NjY3AIfvNvS-46" edge="1">
          <mxGeometry width="50" height="50" relative="1" as="geometry">
            <mxPoint x="518" y="460" as="sourcePoint" />
            <mxPoint x="568" y="410" as="targetPoint" />
          </mxGeometry>
        </mxCell>
        <mxCell id="eSfSr3_J1NjY3AIfvNvS-49" value="" style="endArrow=none;html=1;rounded=0;entryX=0.5;entryY=0;entryDx=0;entryDy=0;exitX=0.5;exitY=1;exitDx=0;exitDy=0;" parent="1" source="eSfSr3_J1NjY3AIfvNvS-44" target="eSfSr3_J1NjY3AIfvNvS-47" edge="1">
          <mxGeometry width="50" height="50" relative="1" as="geometry">
            <mxPoint x="518" y="460" as="sourcePoint" />
            <mxPoint x="568" y="410" as="targetPoint" />
          </mxGeometry>
        </mxCell>
        <mxCell id="eSfSr3_J1NjY3AIfvNvS-50" value="" style="endArrow=none;html=1;rounded=0;entryX=0.5;entryY=1;entryDx=0;entryDy=0;exitX=0.5;exitY=0;exitDx=0;exitDy=0;" parent="1" source="eSfSr3_J1NjY3AIfvNvS-51" target="eSfSr3_J1NjY3AIfvNvS-44" edge="1">
          <mxGeometry width="50" height="50" relative="1" as="geometry">
            <mxPoint x="778" y="540" as="sourcePoint" />
            <mxPoint x="608" y="410" as="targetPoint" />
          </mxGeometry>
        </mxCell>
        <mxCell id="eSfSr3_J1NjY3AIfvNvS-51" value="(cím)" style="ellipse;whiteSpace=wrap;html=1;" parent="1" vertex="1">
          <mxGeometry x="910" y="585" width="80" height="50" as="geometry" />
        </mxCell>
        <mxCell id="eSfSr3_J1NjY3AIfvNvS-53" value="Utca" style="ellipse;whiteSpace=wrap;html=1;" parent="1" vertex="1">
          <mxGeometry x="860" y="670" width="80" height="50" as="geometry" />
        </mxCell>
        <mxCell id="eSfSr3_J1NjY3AIfvNvS-54" value="Város" style="ellipse;whiteSpace=wrap;html=1;" parent="1" vertex="1">
          <mxGeometry x="970" y="670" width="80" height="50" as="geometry" />
        </mxCell>
        <mxCell id="eSfSr3_J1NjY3AIfvNvS-57" value="" style="endArrow=none;html=1;rounded=0;entryX=0.5;entryY=1;entryDx=0;entryDy=0;exitX=0.5;exitY=0;exitDx=0;exitDy=0;" parent="1" source="eSfSr3_J1NjY3AIfvNvS-53" target="eSfSr3_J1NjY3AIfvNvS-51" edge="1">
          <mxGeometry width="50" height="50" relative="1" as="geometry">
            <mxPoint x="760" y="690" as="sourcePoint" />
            <mxPoint x="610" y="410" as="targetPoint" />
          </mxGeometry>
        </mxCell>
        <mxCell id="eSfSr3_J1NjY3AIfvNvS-58" value="" style="endArrow=none;html=1;rounded=0;entryX=0.5;entryY=1;entryDx=0;entryDy=0;exitX=0.5;exitY=0;exitDx=0;exitDy=0;" parent="1" source="eSfSr3_J1NjY3AIfvNvS-54" target="eSfSr3_J1NjY3AIfvNvS-51" edge="1">
          <mxGeometry width="50" height="50" relative="1" as="geometry">
            <mxPoint x="560" y="460" as="sourcePoint" />
            <mxPoint x="610" y="410" as="targetPoint" />
          </mxGeometry>
        </mxCell>
        <mxCell id="eSfSr3_J1NjY3AIfvNvS-60" value="Bérlés" style="rhombus;whiteSpace=wrap;html=1;" parent="1" vertex="1">
          <mxGeometry x="460" y="180" width="80" height="50" as="geometry" />
        </mxCell>
        <mxCell id="eSfSr3_J1NjY3AIfvNvS-61" value="Bérlő" style="rounded=0;whiteSpace=wrap;html=1;" parent="1" vertex="1">
          <mxGeometry x="750" y="180" width="100" height="50" as="geometry" />
        </mxCell>
        <mxCell id="eSfSr3_J1NjY3AIfvNvS-62" value="" style="fontSize=12;html=1;endArrow=ERone;endFill=1;rounded=0;exitX=1;exitY=0.5;exitDx=0;exitDy=0;entryX=0;entryY=0.5;entryDx=0;entryDy=0;" parent="1" source="eSfSr3_J1NjY3AIfvNvS-60" target="eSfSr3_J1NjY3AIfvNvS-61" edge="1">
          <mxGeometry width="100" height="100" relative="1" as="geometry">
            <mxPoint x="417" y="350" as="sourcePoint" />
            <mxPoint x="628" y="320" as="targetPoint" />
          </mxGeometry>
        </mxCell>
        <mxCell id="eSfSr3_J1NjY3AIfvNvS-63" value="" style="fontSize=12;html=1;endArrow=ERone;endFill=1;rounded=0;exitX=0;exitY=0.5;exitDx=0;exitDy=0;entryX=1;entryY=0.5;entryDx=0;entryDy=0;" parent="1" source="eSfSr3_J1NjY3AIfvNvS-60" target="eSfSr3_J1NjY3AIfvNvS-27" edge="1">
          <mxGeometry width="100" height="100" relative="1" as="geometry">
            <mxPoint x="417" y="350" as="sourcePoint" />
            <mxPoint x="417" y="260" as="targetPoint" />
          </mxGeometry>
        </mxCell>
        <mxCell id="eSfSr3_J1NjY3AIfvNvS-64" value="&lt;u&gt;Bigazolvány&lt;/u&gt;" style="ellipse;whiteSpace=wrap;html=1;" parent="1" vertex="1">
          <mxGeometry x="760" y="265" width="80" height="50" as="geometry" />
        </mxCell>
        <mxCell id="eSfSr3_J1NjY3AIfvNvS-65" value="Név" style="ellipse;whiteSpace=wrap;html=1;" parent="1" vertex="1">
          <mxGeometry x="860" y="265" width="80" height="50" as="geometry" />
        </mxCell>
        <mxCell id="eSfSr3_J1NjY3AIfvNvS-67" value="(cím)" style="ellipse;whiteSpace=wrap;html=1;" parent="1" vertex="1">
          <mxGeometry x="960" y="265" width="80" height="50" as="geometry" />
        </mxCell>
        <mxCell id="eSfSr3_J1NjY3AIfvNvS-68" value="" style="ellipse;whiteSpace=wrap;html=1;" parent="1" vertex="1">
          <mxGeometry x="520" y="260" width="100" height="60" as="geometry" />
        </mxCell>
        <mxCell id="eSfSr3_J1NjY3AIfvNvS-69" value="" style="ellipse;whiteSpace=wrap;html=1;" parent="1" vertex="1">
          <mxGeometry x="640" y="260" width="100" height="60" as="geometry" />
        </mxCell>
        <mxCell id="eSfSr3_J1NjY3AIfvNvS-70" value="" style="endArrow=none;html=1;rounded=0;entryX=0.5;entryY=1;entryDx=0;entryDy=0;exitX=0.5;exitY=0;exitDx=0;exitDy=0;" parent="1" source="eSfSr3_J1NjY3AIfvNvS-67" target="eSfSr3_J1NjY3AIfvNvS-61" edge="1">
          <mxGeometry width="50" height="50" relative="1" as="geometry">
            <mxPoint x="750" y="422" as="sourcePoint" />
            <mxPoint x="890" y="212" as="targetPoint" />
          </mxGeometry>
        </mxCell>
        <mxCell id="eSfSr3_J1NjY3AIfvNvS-72" value="" style="endArrow=none;html=1;rounded=0;entryX=0.5;entryY=0;entryDx=0;entryDy=0;exitX=0.5;exitY=1;exitDx=0;exitDy=0;" parent="1" source="eSfSr3_J1NjY3AIfvNvS-61" target="eSfSr3_J1NjY3AIfvNvS-64" edge="1">
          <mxGeometry width="50" height="50" relative="1" as="geometry">
            <mxPoint x="678" y="440" as="sourcePoint" />
            <mxPoint x="728" y="390" as="targetPoint" />
          </mxGeometry>
        </mxCell>
        <mxCell id="eSfSr3_J1NjY3AIfvNvS-73" value="" style="endArrow=none;html=1;rounded=0;entryX=0.5;entryY=0;entryDx=0;entryDy=0;exitX=0.5;exitY=1;exitDx=0;exitDy=0;" parent="1" source="eSfSr3_J1NjY3AIfvNvS-61" target="eSfSr3_J1NjY3AIfvNvS-65" edge="1">
          <mxGeometry width="50" height="50" relative="1" as="geometry">
            <mxPoint x="678" y="440" as="sourcePoint" />
            <mxPoint x="728" y="390" as="targetPoint" />
          </mxGeometry>
        </mxCell>
        <mxCell id="eSfSr3_J1NjY3AIfvNvS-74" value="Telefonszám" style="ellipse;whiteSpace=wrap;html=1;" parent="1" vertex="1">
          <mxGeometry x="650" y="265" width="80" height="50" as="geometry" />
        </mxCell>
        <mxCell id="eSfSr3_J1NjY3AIfvNvS-75" value="Email" style="ellipse;whiteSpace=wrap;html=1;" parent="1" vertex="1">
          <mxGeometry x="530" y="265" width="80" height="50" as="geometry" />
        </mxCell>
        <mxCell id="eSfSr3_J1NjY3AIfvNvS-76" value="" style="endArrow=none;html=1;rounded=0;entryX=0.5;entryY=1;entryDx=0;entryDy=0;exitX=0.5;exitY=0;exitDx=0;exitDy=0;" parent="1" source="eSfSr3_J1NjY3AIfvNvS-68" target="eSfSr3_J1NjY3AIfvNvS-61" edge="1">
          <mxGeometry width="50" height="50" relative="1" as="geometry">
            <mxPoint x="558" y="460" as="sourcePoint" />
            <mxPoint x="689.7157287525383" y="292.6776695296635" as="targetPoint" />
          </mxGeometry>
        </mxCell>
        <mxCell id="eSfSr3_J1NjY3AIfvNvS-77" value="" style="endArrow=none;html=1;rounded=0;entryX=0.5;entryY=1;entryDx=0;entryDy=0;exitX=0.5;exitY=0;exitDx=0;exitDy=0;" parent="1" source="eSfSr3_J1NjY3AIfvNvS-69" target="eSfSr3_J1NjY3AIfvNvS-61" edge="1">
          <mxGeometry width="50" height="50" relative="1" as="geometry">
            <mxPoint x="678" y="440" as="sourcePoint" />
            <mxPoint x="746.2842712474617" y="292.6776695296635" as="targetPoint" />
          </mxGeometry>
        </mxCell>
        <mxCell id="eSfSr3_J1NjY3AIfvNvS-79" value="Utca" style="ellipse;whiteSpace=wrap;html=1;" parent="1" vertex="1">
          <mxGeometry x="912" y="360" width="80" height="50" as="geometry" />
        </mxCell>
        <mxCell id="eSfSr3_J1NjY3AIfvNvS-80" value="Város" style="ellipse;whiteSpace=wrap;html=1;" parent="1" vertex="1">
          <mxGeometry x="1012" y="360" width="80" height="50" as="geometry" />
        </mxCell>
        <mxCell id="eSfSr3_J1NjY3AIfvNvS-83" value="" style="endArrow=none;html=1;rounded=0;entryX=0.5;entryY=0;entryDx=0;entryDy=0;exitX=0.5;exitY=1;exitDx=0;exitDy=0;" parent="1" source="eSfSr3_J1NjY3AIfvNvS-67" target="eSfSr3_J1NjY3AIfvNvS-79" edge="1">
          <mxGeometry width="50" height="50" relative="1" as="geometry">
            <mxPoint x="922" y="270" as="sourcePoint" />
            <mxPoint x="902" y="390" as="targetPoint" />
          </mxGeometry>
        </mxCell>
        <mxCell id="eSfSr3_J1NjY3AIfvNvS-84" value="" style="endArrow=none;html=1;rounded=0;entryX=0.5;entryY=0;entryDx=0;entryDy=0;exitX=0.5;exitY=1;exitDx=0;exitDy=0;" parent="1" source="eSfSr3_J1NjY3AIfvNvS-67" target="eSfSr3_J1NjY3AIfvNvS-80" edge="1">
          <mxGeometry width="50" height="50" relative="1" as="geometry">
            <mxPoint x="852" y="440" as="sourcePoint" />
            <mxPoint x="902" y="390" as="targetPoint" />
          </mxGeometry>
        </mxCell>
        <mxCell id="kijBI8JlQxW2-UrN7yWD-1" value="Kor" style="ellipse;whiteSpace=wrap;html=1;" parent="1" vertex="1">
          <mxGeometry x="810" y="585" width="80" height="50" as="geometry" />
        </mxCell>
        <mxCell id="kijBI8JlQxW2-UrN7yWD-2" value="" style="endArrow=none;html=1;rounded=0;entryX=0.5;entryY=0;entryDx=0;entryDy=0;exitX=0.5;exitY=1;exitDx=0;exitDy=0;" parent="1" source="eSfSr3_J1NjY3AIfvNvS-44" target="kijBI8JlQxW2-UrN7yWD-1" edge="1">
          <mxGeometry width="50" height="50" relative="1" as="geometry">
            <mxPoint x="668" y="530" as="sourcePoint" />
            <mxPoint x="718" y="480" as="targetPoint" />
          </mxGeometry>
        </mxCell>
        <mxCell id="kijBI8JlQxW2-UrN7yWD-5" value="Kor" style="ellipse;whiteSpace=wrap;html=1;" parent="1" vertex="1">
          <mxGeometry x="-490" y="585" width="80" height="50" as="geometry" />
        </mxCell>
        <mxCell id="kijBI8JlQxW2-UrN7yWD-6" value="" style="endArrow=none;html=1;rounded=0;entryX=0.5;entryY=1;entryDx=0;entryDy=0;exitX=0.5;exitY=0;exitDx=0;exitDy=0;" parent="1" source="kijBI8JlQxW2-UrN7yWD-5" target="eSfSr3_J1NjY3AIfvNvS-9" edge="1">
          <mxGeometry width="50" height="50" relative="1" as="geometry">
            <mxPoint x="-362" y="540" as="sourcePoint" />
            <mxPoint x="-352" y="500" as="targetPoint" />
          </mxGeometry>
        </mxCell>
        <mxCell id="kijBI8JlQxW2-UrN7yWD-7" value="Helyigény" style="ellipse;whiteSpace=wrap;html=1;" parent="1" vertex="1">
          <mxGeometry x="10" y="585" width="80" height="50" as="geometry" />
        </mxCell>
        <mxCell id="kijBI8JlQxW2-UrN7yWD-8" value="" style="endArrow=none;html=1;rounded=0;entryX=0.5;entryY=0;entryDx=0;entryDy=0;exitX=0.5;exitY=1;exitDx=0;exitDy=0;" parent="1" source="eSfSr3_J1NjY3AIfvNvS-18" target="kijBI8JlQxW2-UrN7yWD-7" edge="1">
          <mxGeometry width="50" height="50" relative="1" as="geometry">
            <mxPoint x="318" y="480" as="sourcePoint" />
            <mxPoint x="408" y="460" as="targetPoint" />
          </mxGeometry>
        </mxCell>
      </root>
    </mxGraphModel>
  </diagram>
</mxfile>
